<?xml version="1.0" encoding="UTF-8" standalone="no"?>
<svg width="24px" height="48px" viewBox="0 0 24 48" version="1.1" xmlns="http://www.w3.org/2000/svg" xmlns:xlink="http://www.w3.org/1999/xlink">
    <title>Bottom Keyframes</title>
    <g id="WHUT" stroke="none" stroke-width="1" fill="none" fill-rule="evenodd">
        <g id="Bottom Keyframes" transform="translate(3.000000, 3.000000)">
            <path d="M2.99253976,0 L15.0074602,0 C16.6470745,0 18,1.33980569 18,2.99253976 L18,15.0074602 C18,16.6470745 16.6601943,18 15.0074602,18 L2.99253976,18 C1.35292554,18 0,16.6601943 0,15.0074602 L0,2.99253976 C0,1.35292554 1.33980569,0 2.99253976,0 L2.99253976,0 Z M2.99253976,0" id="Bottom Bezier" fill="#BBBBBB"></path>
            <path d="M5,12 C6.65685433,12 8,10.6568543 8,9 C8,7.34314567 6.65685433,6 5,6 C3.34314567,6 2,7.34314567 2,9 C2,10.6568543 3.34314567,12 5,12 Z M5,12" id="Oval 1" opacity="0.36" fill="#5D5F60"></path>
            <path d="M9,12 C10.6568543,12 12,10.6568543 12,9 C12,7.34314567 10.6568543,6 9,6 C7.34314567,6 6,7.34314567 6,9 C6,10.6568543 7.34314567,12 9,12 Z M9,12" id="Oval 1" opacity="0.69" fill="#5D5F60"></path>
            <path d="M13,12 C14.6568543,12 16,10.6568543 16,9 C16,7.34314567 14.6568543,6 13,6 C11.3431457,6 10,7.34314567 10,9 C10,10.6568543 11.3431457,12 13,12 Z M13,12" id="Oval 1" fill="#5D5F60"></path>
        </g>
        <g id="Bottom Keyframes copy" transform="translate(3.000000, 27.000000)">
            <path d="M2.99253976,0 L15.0074602,0 C16.6470745,0 18,1.33980569 18,2.99253976 L18,15.0074602 C18,16.6470745 16.6601943,18 15.0074602,18 L2.99253976,18 C1.35292554,18 0,16.6601943 0,15.0074602 L0,2.99253976 C0,1.35292554 1.33980569,0 2.99253976,0 L2.99253976,0 Z M2.99253976,0" id="Bottom Bezier" fill="#78B2F2"></path>
            <path d="M5,12 C6.65685433,12 8,10.6568543 8,9 C8,7.34314567 6.65685433,6 5,6 C3.34314567,6 2,7.34314567 2,9 C2,10.6568543 3.34314567,12 5,12 Z M5,12" id="Oval 1" opacity="0.36" fill="#5D5F60"></path>
            <path d="M9,12 C10.6568543,12 12,10.6568543 12,9 C12,7.34314567 10.6568543,6 9,6 C7.34314567,6 6,7.34314567 6,9 C6,10.6568543 7.34314567,12 9,12 Z M9,12" id="Oval 1" opacity="0.69" fill="#5D5F60"></path>
            <path d="M13,12 C14.6568543,12 16,10.6568543 16,9 C16,7.34314567 14.6568543,6 13,6 C11.3431457,6 10,7.34314567 10,9 C10,10.6568543 11.3431457,12 13,12 Z M13,12" id="Oval 1" fill="#5D5F60"></path>
        </g>
    </g>
</svg>